<?xml version="1.0" standalone="no"?>
<!DOCTYPE svg PUBLIC "-//W3C//DTD SVG 20010904//EN"
 "http://www.w3.org/TR/2001/REC-SVG-20010904/DTD/svg10.dtd">
<svg version="1.0" xmlns="http://www.w3.org/2000/svg"
 width="512.000000pt" height="512.000000pt" viewBox="0 0 512.000000 512.000000"
 preserveAspectRatio="xMidYMid meet">
<metadata>
Created by potrace 1.14, written by Peter Selinger 2001-2017
</metadata>
<g transform="translate(0.000000,512.000000) scale(0.100000,-0.100000)"
fill="#000000" stroke="none">
<path d="M2305 5109 c-38 -4 -87 -10 -107 -13 -21 -3 -55 -9 -75 -12 -21 -3
-69 -12 -107 -21 -37 -8 -73 -16 -80 -17 -6 -2 -31 -8 -56 -15 -530 -148 -988
-454 -1338 -895 -58 -73 -153 -211 -194 -281 -80 -137 -224 -469 -242 -556 -3
-13 -10 -40 -16 -59 -28 -90 -53 -224 -75 -390 -17 -139 -13 -520 8 -650 25
-150 27 -159 53 -265 79 -312 228 -632 408 -875 14 -19 34 -46 43 -60 57 -80
227 -261 348 -371 113 -102 358 -268 512 -347 203 -104 438 -187 661 -232 106
-21 119 -23 237 -37 88 -10 458 -11 547 -1 426 48 850 206 1188 442 150 105
357 290 466 416 175 203 319 431 422 666 44 98 118 313 127 365 3 18 8 35 10
39 10 16 53 259 62 348 12 119 9 507 -5 602 -86 586 -337 1093 -737 1485 -125
122 -155 149 -251 220 -49 37 -97 73 -107 81 -9 8 -19 14 -21 14 -2 0 -44 25
-92 56 -297 186 -669 315 -1038 358 -119 14 -435 17 -551 5z"/>
</g>
</svg>
